<svg version="1.1" xmlns="http://www.w3.org/2000/svg" xmlns:xlink="http://www.w3.org/1999/xlink" width="1560" height="804"><defs/><g><path fill="none" stroke="#02063B" paint-order="fill stroke markers" d=" M 20 418.6069423480393 L 21 419.4330132228581 L 22 420.25845901391153 L 23 421.08325012374814 L 24 421.9073569783908 L 25 422.73075002839744 L 26 423.55339974992035 L 27 424.3752766457647 L 28 425.1963512464465 L 29 426.01659411124916 L 30 426.83597582927894 L 31 427.6544670205197 L 32 428.4720383368863 L 33 429.2886604632771 L 34 430.10430411862467 L 35 430.91894005694604 L 36 431.7325390683914 L 37 432.5450719802912 L 38 433.35650965820224 L 39 434.1668230069526 L 40 434.97598297168446 L 41 435.7839605388962 L 42 436.59072673748267 L 43 437.3962526397738 L 44 438.2005093625722 L 45 439.00346806818834 L 46 439.805099965475 L 47 440.6053763108594 L 48 441.40426840937386 L 49 442.2017476156846 L 50 442.99778533511915 L 51 443.79235302469124 L 52 444.5854221941247 L 53 445.3769644068746 L 54 446.16695128114713 L 55 446.9553544909172 L 56 447.74214576694413 L 57 448.52729689778516 L 58 449.3107797308073 L 59 450.0925661731964 L 60 450.8726281929647 L 61 451.65093781995597 L 62 452.4274671468482 L 63 453.20218833015446 L 64 453.9750735912213 L 65 454.74609521722454 L 66 455.5152255621632 L 67 456.2824370478507 L 68 457.04770216490357 L 69 457.81099347372805 L 70 458.57228360550397 L 71 459.3315452631659 L 72 460.088751222382 L 73 460.8438743325303 L 74 461.59688751767214 L 75 462.347763777523 L 76 463.0964761884207 L 77 463.84299790429054 L 78 464.5873021576083 L 79 465.32936226035974 L 80 466.06915160499756 L 81 466.80664366539554 L 82 467.5418119977997 L 83 468.2746302417762 L 84 469.005072121157 L 85 469.7331114449816 L 86 470.4587221084363 L 87 471.1818780937902 L 88 471.90255347132825 L 89 472.6207224002809 L 90 473.3363591297504 L 91 474.0494379996346 L 92 474.75993344154676 L 93 475.46781997973227 L 94 476.17307223198225 L 95 476.87566491054366 L 96 477.575572823026 L 97 478.2727708733046 L 98 478.9672340624204 L 99 479.65893748947656 L 100 480.34785635253104 L 101 481.0339659494862 L 102 481.717241678974 L 103 482.39765904123897 L 104 483.07519363901565 L 105 483.7498211784044 L 106 484.4215174697416 L 107 485.0902584284678 L 108 485.7560200759905 L 109 486.4187785405446 L 110 487.07851005804815 L 111 487.73519097295423 L 112 488.38879773909935 L 113 489.0393069205478 L 114 489.6866951924317 L 115 490.3309393417877 L 116 490.972016268389 L 117 491.60990298557374 L 118 492.2445766210694 L 119 492.8760144178126 L 120 493.50419373476524 L 121 494.1290920477265 L 122 494.7506869501401 L 123 495.368956153898 L 124 495.98387749013955 L 125 496.59542891004617 L 126 497.2035884856323 L 127 497.80833441053124 L 128 498.4096450007774 L 129 499.0074986955836 L 130 499.60187405811416 L 131 500.1927497762537 L 132 500.7801046633713 L 133 501.3639176590798 L 134 501.94416782999167 L 135 502.5208343704688 L 136 503.093896603369 L 137 503.66333398078746 L 138 504.2291260847932 L 139 504.7912526281614 L 140 505.3496934551007 L 141 505.90442854197613 L 142 506.45543799802675 L 143 507.0027020660791 L 144 507.54620112325574 L 145 508.0859156816785 L 146 508.6218263891674 L 147 509.15391402993464 L 148 509.6821595252736 L 149 510.20654393424275 L 150 510.7270484543449 L 151 511.24365442220164 L 152 511.7563433142221 L 153 512.2650967472673 L 154 512.7698964793096 L 155 513.2707244100864 L 156 513.7675625817491 L 157 514.2603931795076 L 158 514.7491985322682 L 159 515.2339611132683 L 160 515.7146635407036 L 161 516.1912885783523 L 162 516.6638191361928 L 163 517.1322382710166 L 164 517.5965291870352 L 165 518.0566752364836 L 166 518.5126599202158 L 167 518.9644668882976 L 168 519.412079940592 L 169 519.8554830273405 L 170 520.2946602497384 L 171 520.7295958605052 L 172 521.1602742644488 L 173 521.5866800190249 L 174 522.0087978348909 L 175 522.4266125764534 L 176 522.840109262412 L 177 523.2492730662957 L 178 523.6540893169947 L 179 524.0545434992863 L 180 524.450621254356 L 181 524.8423083803112 L 182 525.2295908326919 L 183 525.6124547249728 L 184 525.9908863290626 L 185 526.364872075795 L 186 526.734398555416 L 187 527.0994525180645 L 188 527.4600208742474 L 189 527.8160906953092 L 190 528.167649213895 L 191 528.5146838244086 L 192 528.857182083465 L 193 529.1951317103355 L 194 529.5285205873892 L 195 529.8573367605261 L 196 530.1815684396074 L 197 530.501203998877 L 198 530.8162319773788 L 199 531.1266410793677 L 200 531.4324201747144 L 201 531.7335582993045 L 202 532.0300446554322 L 203 532.3218686121866 L 204 532.6090197058334 L 205 532.8914876401901 L 206 533.169262286995 L 207 533.4423336862706 L 208 533.71069204668 L 209 533.9743277458794 L 210 534.2332313308616 L 211 534.4873935182959 L 212 534.7368051948605 L 213 534.9814574175698 L 214 535.2213414140945 L 215 535.4564485830762 L 216 535.6867704944361 L 217 535.9122988896775 L 218 536.133025682181 L 219 536.3489429574954 L 220 536.5600429736209 L 221 536.7663181612869 L 222 536.9677611242237 L 223 537.1643646394272 L 224 537.3561216574179 L 225 537.5430253024942 L 226 537.7250688729787 L 227 537.9022458414579 L 228 538.0745498550173 L 229 538.2419747354683 L 230 538.40451447957 L 231 538.5621632592452 L 232 538.7149154217877 L 233 538.862765490067 L 234 539.0057081627228 L 235 539.1437383143565 L 236 539.2768509957143 L 237 539.4050414338649 L 238 539.5283050323703 L 239 539.6466373714511 L 240 539.7600342081446 L 241 539.868491476457 L 242 539.9720052875098 L 243 540.0705719296777 L 244 540.1641878687238 L 245 540.2528497479244 L 246 540.3365543881905 L 247 540.4152987881814 L 248 540.4890801244125 L 249 540.5578957513561 L 250 540.6217432015371 L 251 540.6806201856206 L 252 540.7345245924942 L 253 540.7834544893442 L 254 540.8274081217244 L 255 540.8663839136188 L 256 540.9003804674994 L 257 540.9293965643742 L 258 540.953431163833 L 259 540.9724834040832 L 260 540.9865526019817 L 261 540.9956382530585 L 262 540.9997400315358 L 263 540.9988577903388 L 264 540.9929915611015 L 265 540.9821415541652 L 266 540.9663081585713 L 267 540.9454919420473 L 268 540.919693650986 L 269 540.8889142104194 L 270 540.8531547239851 L 271 540.8124164738866 L 272 540.766700920848 L 273 540.7160097040611 L 274 540.6603446411262 L 275 540.5997077279881 L 276 540.5341011388634 L 277 540.4635272261635 L 278 540.3879885204091 L 279 540.3074877301406 L 280 540.2220277418205 L 281 540.1316116197297 L 282 540.0362426058581 L 283 539.9359241197877 L 284 539.8306597585707 L 285 539.7204532966002 L 286 539.6053086854747 L 287 539.4852300538568 L 288 539.3602217073244 L 289 539.2302881282176 L 290 539.0954339754768 L 291 538.9556640844761 L 292 538.81098346685 L 293 538.6613973103134 L 294 538.5069109784763 L 295 538.3475300106502 L 296 538.183260121651 L 297 538.0141072015929 L 298 537.8400773156777 L 299 537.6611767039774 L 300 537.4774117812102 L 301 537.2887891365108 L 302 537.0953155331936 L 303 536.8969979085108 L 304 536.6938433734035 L 305 536.4858592122463 L 306 536.2730528825866 L 307 536.0554320148773 L 308 535.8330044122024 L 309 535.6057780499982 L 310 535.3737610757664 L 311 535.1369618087832 L 312 534.8953887397994 L 313 534.6490505307373 L 314 534.3979560143795 L 315 534.1421141940522 L 316 533.8815342433024 L 317 533.6162255055696 L 318 533.3461974938492 L 319 533.0714598903535 L 320 532.7920225461626 L 321 532.5078954808725 L 322 532.2190888822354 L 323 531.9256131057939 L 324 531.6274786745106 L 325 531.3246962783901 L 326 531.0172767740961 L 327 530.7052311845619 L 328 530.3885706985949 L 329 530.0673066704762 L 330 529.7414506195529 L 331 529.4110142298248 L 332 529.0760093495262 L 333 528.7364479907005 L 334 528.3923423287697 L 335 528.0437047020979 L 336 527.6905476115485 L 337 527.3328837200366 L 338 526.9707258520743 L 339 526.6040869933117 L 340 526.2329802900701 L 341 525.8574190488717 L 342 525.4774167359619 L 343 525.0929869768266 L 344 524.7041435557039 L 345 524.310900415089 L 346 523.9132716552356 L 347 523.5112715336492 L 348 523.104914464576 L 349 522.6942150184868 L 350 522.279187921554 L 351 521.8598480551234 L 352 521.436210455181 L 353 521.0082903118138 L 354 520.5761029686648 L 355 520.1396639223835 L 356 519.6989888220695 L 357 519.254093468712 L 358 518.8049938146224 L 359 518.3517059628638 L 360 517.8942461666718 L 361 517.432630828873 L 362 516.9668765012965 L 363 516.4969998841801 L 364 516.0230178255721 L 365 515.5449473207264 L 366 515.0628055114937 L 367 514.5766096857071 L 368 514.0863772765613 L 369 513.5921258619883 L 370 513.093873164027 L 371 512.591637048187 L 372 512.0854355228095 L 373 511.5752867384199 L 374 511.0612089870784 L 375 510.54322070172316 L 376 510.02134045550986 L 377 509.4955869611455 L 378 508.9659790702176 L 379 508.4325357725181 L 380 507.8952761953626 L 381 507.35421960290444 L 382 506.8093853954439 L 383 506.2607931087327 L 384 505.7084624132734 L 385 505.1524131136144 L 386 504.59266514763914 L 387 504.029238585852 L 388 503.46215363065824 L 389 502.8914306156395 L 390 502.317090004825 L 391 501.7391523919575 L 392 501.15763849975525 L 393 500.57256917916857 L 394 499.98396540863234 L 395 499.39184829331396 L 396 498.7962390643565 L 397 498.1971590781171 L 398 497.59462981540173 L 399 496.98867288069476 L 400 496.37931000138406 L 401 495.76656302698234 L 402 495.15045392834355 L 403 494.53100479687487 L 404 493.908237843745 L 405 493.28217539908724 L 406 492.65283991119935 L 407 492.0202539457384 L 408 491.3844401849113 L 409 490.74542142666235 L 410 490.10322058385486 L 411 489.4578606834501 L 412 488.8093648656817 L 413 488.15775638322555 L 414 487.50305860036633 L 415 486.84529499215967 L 416 486.18448914359044 L 417 485.52066474872703 L 418 484.8538456098719 L 419 484.18405563670785 L 420 483.5113188454411 L 421 482.8356593579397 L 422 482.157101400869 L 423 481.47566930482276 L 424 480.79138750345084 L 425 480.10428053258295 L 426 479.4143730293491 L 427 478.72168973129607 L 428 478.0262554755003 L 429 477.3280951976778 L 430 476.62723393128937 L 431 475.9236968066434 L 432 475.21750904999493 L 433 474.50869598264063 L 434 473.7972830200113 L 435 473.08329567076044 L 436 472.36675953584967 L 437 471.6477003076305 L 438 470.92614376892334 L 439 470.2021157920931 L 440 469.47564233812125 L 441 468.7467494556752 L 442 468.0154632801739 L 443 467.2818100328514 L 444 466.54581601981596 L 445 465.8075076311071 L 446 465.0669113397495 L 447 464.32405370080346 L 448 463.5789613504129 L 449 462.8316610048504 L 450 462.0821794595591 L 451 461.3305435881918 L 452 460.5767803416477 L 453 459.82091674710574 L 454 459.06297990705565 L 455 458.30299699832614 L 456 457.54099527111026 L 457 456.77700204798884 L 458 456.01104472295003 L 459 455.24315076040773 L 460 454.4733476942164 L 461 453.7016631266839 L 462 452.92812472758203 L 463 452.1527602331538 L 464 451.37559744511975 L 465 450.59666422968036 L 466 449.815988516517 L 467 449.03359829779095 L 468 448.24952162713896 L 469 447.46378661866805 L 470 446.676421445947 L 471 445.88745434099644 L 472 445.09691359327616 L 473 444.30482754867114 L 474 443.511224608475 L 475 442.7161332283717 L 476 441.9195819174151 L 477 441.12159923700676 L 478 440.3222137998722 L 479 439.52145426903434 L 480 438.7193493567861 L 481 437.9159278236609 L 482 437.1112184774013 L 483 436.305250171926 L 484 435.49805180629556 L 485 434.68965232367594 L 486 433.8800807103006 L 487 433.06936599443145 L 488 432.2575372453176 L 489 431.4446235721537 L 490 430.6306541230354 L 491 429.8156580839148 L 492 428.9996646775537 L 493 428.1827031624759 L 494 427.36480283191787 L 495 426.54599301277864 L 496 425.7263030645682 L 497 424.90576237835455 L 498 424.0844003757102 L 499 423.26224650765704 L 500 422.4393302536103 L 501 421.61568112032154 L 502 420.7913286408208 L 503 419.9663023733573 L 504 419.14063190034 L 505 418.3143468272766 L 506 417.48747678171236 L 507 416.66005141216715 L 508 415.83210038707284 L 509 415.0036533937095 L 510 414.17474013714065 L 511 413.34539033914837 L 512 412.5156337371674 L 513 411.68550008321915 L 514 410.85501914284464 L 515 410.02422069403724 L 516 409.1931345261752 L 517 408.361790438953 L 518 407.5302182413135 L 519 406.6984477503785 L 520 405.86650879038 L 521 405.0344311915907 L 522 404.2022447892544 L 523 403.369979422516 L 524 402.53766493335195 L 525 401.7053311655 L 526 400.8730079633891 L 527 400.04072517106954 L 528 399.2085126311425 L 529 398.3764001836902 L 530 397.5444176652059 L 531 396.7125949075241 L 532 395.8809617367509 L 533 395.04954797219443 L 534 394.2183834252958 L 535 393.3874978985601 L 536 392.55692118448775 L 537 391.7266830645062 L 538 390.8968133079023 L 539 390.06734167075456 L 540 389.2382978948666 L 541 388.40971170670053 L 542 387.5816128163108 L 543 386.75403091627925 L 544 385.9269956806505 L 545 385.10053676386764 L 546 384.27468379970907 L 547 383.449466400226 L 548 382.6249141546808 L 549 381.8010566284856 L 550 380.97792336214246 L 551 380.1555438701844 L 552 379.33394764011655 L 553 378.51316413135936 L 554 377.693222774192 L 555 376.8741529686973 L 556 376.0559840837072 L 557 375.2387454557501 L 558 374.42246638799895 L 559 373.6071761492201 L 560 372.7929039727243 L 561 371.97967905531823 L 562 371.16753055625793 L 563 370.3564875962028 L 564 369.54657925617175 L 565 368.7378345765004 L 566 367.9302825557998 L 567 367.12395214991665 L 568 366.3188722708949 L 569 365.51507178593937 L 570 364.71257951638046 L 571 363.9114242366408 L 572 363.11163467320335 L 573 362.31323950358166 L 574 361.51626735529135 L 575 360.72074680482365 L 576 359.9267063766212 L 577 359.13417454205444 L 578 358.3431797184014 L 579 357.5537502678286 L 580 356.76591449637397 L 581 355.9797006529318 L 582 355.1951369282403 L 583 354.4122514538704 L 584 353.631072301217 L 585 352.8516274804927 L 586 352.07394493972333 L 587 351.2980525637458 L 588 350.52397817320826 L 589 349.7517495235727 L 590 348.9813943041196 L 591 348.212940136955 L 592 347.4464145760203 L 593 346.6818451061041 L 594 345.91925914185686 L 595 345.15868402680775 L 596 344.4001470323843 L 597 343.64367535693464 L 598 342.8892961247519 L 599 342.1370363851021 L 600 341.38692311125396 L 601 340.6389831995118 L 602 339.8932434682512 L 603 339.14973065695756 L 604 338.4084714252667 L 605 337.66949235200974 L 606 336.93281993425944 L 607 336.1984805863805 L 608 335.46650063908237 L 609 334.7369063384748 L 610 334.0097238451275 L 611 333.2849792331311 L 612 332.56269848916315 L 613 331.8429075115557 L 614 331.1256321093672 L 615 330.41089800145653 L 616 329.69873081556125 L 617 328.9891560873786 L 618 328.2821992596497 L 619 327.5778856812473 L 620 326.8762406062672 L 621 326.1772891931223 L 622 325.4810565036407 L 623 324.787567502167 L 624 324.09684705466753 L 625 323.40891992783816 L 626 322.7238107882166 L 627 322.04154420129805 L 628 321.362144630654 L 629 320.68563643705534 L 630 320.0120438775989 L 631 319.3413911048376 L 632 318.6737021659144 L 633 318.00900100169986 L 634 317.3473114459342 L 635 316.6886572243724 L 636 316.03306195393327 L 637 315.3805491418531 L 638 314.73114218484267 L 639 314.08486436824785 L 640 313.4417388652153 L 641 312.8017887358613 L 642 312.16503692644477 L 643 311.5315062685448 L 644 310.90121947824156 L 645 310.2741991553024 L 646 309.65046778237104 L 647 309.03004772416136 L 648 308.41296122665585 L 649 307.7992304163077 L 650 307.18887729924757 L 651 306.5819237604943 L 652 305.9783915631706 L 653 305.3783023477222 L 654 304.7816776311423 L 655 304.1885388061999 L 656 303.5989071406727 L 657 303.0128037765845 L 658 302.43024972944727 L 659 301.85126588750757 L 660 301.27587301099743 L 661 300.7040917313901 L 662 300.1359425506602 L 663 299.57144584054873 L 664 299.0106218418324 L 665 298.453490663598 L 666 297.9000722825216 L 667 297.35038654215157 L 668 296.804453152198 L 669 296.26229168782504 L 670 295.7239215889498 L 671 295.18936215954477 L 672 294.65863256694587 L 673 294.1317518411652 L 674 293.60873887420865 L 675 293.08961241939835 L 676 292.57439109070066 L 677 292.0630933620583 L 678 291.55573756672806 L 679 291.0523418966236 L 680 290.55292440166306 L 681 290.0575029891218 L 682 289.5660954229904 L 683 289.07871932333745 L 684 288.59539216567833 L 685 288.116131280348 L 686 287.6409538518799 L 687 287.1698769183898 L 688 286.70291737096454 L 689 286.24009195305695 L 690 285.781417259885 L 691 285.326909737837 L 692 284.87658568388184 L 693 284.43046124498443 L 694 283.98855241752716 L 695 283.550875046736 L 696 283.1174448261124 L 697 282.68827729687064 L 698 282.2633878473806 L 699 281.84279171261596 L 700 281.42650397360785 L 701 281.01453955690414 L 702 280.60691323403444 L 703 280.2036396209799 L 704 279.80473317765006 L 705 279.41020820736327 L 706 279.02007885633464 L 707 278.63435911316844 L 708 278.2530628083566 L 709 277.876203613783 L 710 277.5037950422328 L 711 277.1358504469083 L 712 276.7723830209501 L 713 276.41340579696373 L 714 276.0589316465529 L 715 275.70897327985733 L 716 275.3635432450977 L 717 275.02265392812495 L 718 274.6863175519769 L 719 274.35454617643956 L 720 274.0273516976147 L 721 273.7047458474935 L 722 273.38674019353573 L 723 273.07334613825503 L 724 272.7645749188101 L 725 272.4604376066019 L 726 272.16094510687617 L 727 271.86610815833296 L 728 271.5759373327413 L 729 271.29044303456044 L 730 271.0096355005661 L 731 270.73352479948426 L 732 270.4621208316296 L 733 270.19543332855056 L 734 269.93347185268067 L 735 269.67624579699543 L 736 269.42376438467545 L 737 269.1760366687761 L 738 268.9330715319024 L 739 268.6948776858911 L 740 268.46146367149777 L 741 268.2328378580909 L 742 268.0090084433516 L 743 267.78998345298 L 744 267.5757707404068 L 745 267.3663779865125 L 746 267.1618126993515 L 747 266.9620822138829 L 748 266.7671936917077 L 749 266.57715412081177 L 750 266.39197031531546 L 751 266.2116489152294 L 752 266.0361963862159 L 753 265.8656190193577 L 754 265.6999229309322 L 755 265.53911406219174 L 756 265.38319817915146 L 757 265.2321808723815 L 758 265.0860675568074 L 759 264.9448634715154 L 760 264.80857367956514 L 761 264.6772030678072 L 762 264.5507563467091 L 763 264.4292380501851 L 764 264.3126525354347 L 765 264.2010039827859 L 766 264.0942963955453 L 767 263.9925335998547 L 768 263.8957192445538 L 769 263.8038568010495 L 770 263.71694956319135 L 771 263.63500064715333 L 772 263.55801299132236 L 773 263.4859893561927 L 774 263.4189323242672 L 775 263.35684429996445 L 776 263.29972750953266 L 777 263.24758400097016 L 778 263.20041564395126 L 779 263.15822412976 L 780 263.12101097122894 L 781 263.08877750268505 L 782 263.06152487990215 L 783 263.039254080059 L 784 263.02196590170456 L 785 263.0096609647295 L 786 263.00233971034356 L 787 263.00000240106 L 788 263.00264912068604 L 789 263.0102797743202 L 790 263.0228940883552 L 791 263.0404916104882 L 792 263.0630717097367 L 793 263.0906335764613 L 794 263.1231762223948 L 795 263.16069848067764 L 796 263.2031990058995 L 797 263.25067627414785 L 798 263.3031285830623 L 799 263.360554051896 L 800 263.42295062158263 L 801 263.4903160548107 L 802 263.5626479361033 L 803 263.63994367190526 L 804 263.72220049067545 L 805 263.80941544298685 L 806 263.901585401632 L 807 263.9987070617349 L 808 264.10077694086976 L 809 264.2077913791862 L 810 264.3197465395397 L 811 264.43663840762986 L 812 264.55846279214404 L 813 264.68521532490763 L 814 264.81689146104077 L 815 264.9534864791214 L 816 265.0949954813542 L 817 265.24141339374665 L 818 265.3927349662906 L 819 265.54895477315097 L 820 265.71006721285954 L 821 265.8760665085167 L 822 266.04694670799785 L 823 266.2227016841673 L 824 266.4033251350978 L 825 266.5888105842963 L 826 266.77915138093647 L 827 266.9743407000973 L 828 267.17437154300717 L 829 267.3792367372955 L 830 267.58892893724953 L 831 267.8034406240779 L 832 268.02276410618015 L 833 268.24689151942243 L 834 268.4758148274197 L 835 268.7095258218237 L 836 268.94801612261745 L 837 269.1912771784155 L 838 269.43930026677054 L 839 269.69207649448657 L 840 269.9495967979373 L 841 270.21185194339137 L 842 270.47883252734346 L 843 270.75052897685123 L 844 271.0269315498788 L 845 271.3080303356461 L 846 271.5938152549841 L 847 271.8842760606962 L 848 272.1794023379257 L 849 272.4791835045294 L 850 272.7836088114565 L 851 273.0926673431348 L 852 273.40634801786155 L 853 273.72463958820094 L 854 274.0475306413873 L 855 274.37500959973465 L 856 274.7070647210513 L 857 275.04368409906147 L 858 275.3848556638316 L 859 275.7305671822038 L 860 276.08080625823385 L 861 276.4355603336361 L 862 276.7948166882336 L 863 277.15856244041413 L 864 277.52678454759234 L 865 277.89946980667713 L 866 278.2766048545452 L 867 278.6581761685202 L 868 279.04417006685753 L 869 279.43457270923506 L 870 279.82937009724935 L 871 280.22854807491734 L 872 280.6320923291843 L 873 281.0399883904367 L 874 281.45222163302145 L 875 281.86877727576996 L 876 282.2896403825282 L 877 282.7147958626924 L 878 283.1442284717501 L 879 283.5779228118266 L 880 284.01586333223725 L 881 284.45803433004494 L 882 284.9044199506233 L 883 285.35500418822505 L 884 285.80977088655584 L 885 286.2687037393538 L 886 286.7317862909738 L 887 287.19900193697816 L 888 287.6703339247314 L 889 288.1457653540011 L 890 288.6252791775642 L 891 289.1088582018177 L 892 289.59648508739554 L 893 290.08814234979036 L 894 290.58381235998013 L 895 291.0834773450605 L 896 291.58711938888206 L 897 292.09472043269267 L 898 292.60626227578507 L 899 293.12172657614906 L 900 293.64109485113005 L 901 294.16434847809103 L 902 294.69146869508046 L 903 295.2224366015053 L 904 295.7572331588084 L 905 296.29583919115134 L 906 296.83823538610176 L 907 297.38440229532614 L 908 297.934320335287 L 909 298.48796978794513 L 910 299.04533080146655 L 911 299.6063833909342 L 912 300.17110743906494 L 913 300.73948269693045 L 914 301.31148878468343 L 915 301.8871051922886 L 916 302.46631128025746 L 917 303.04908628038925 L 918 303.63540929651487 L 919 304.22525930524637 L 920 304.81861515673097 L 921 305.41545557540917 L 922 306.01575916077775 L 923 306.6195043881569 L 924 307.2266696094624 L 925 307.8372330539816 L 926 308.45117282915396 L 927 309.06846692135605 L 928 309.6890931966911 L 929 310.31302940178256 L 930 310.9402531645718 L 931 311.5707419951206 L 932 312.20447328641734 L 933 312.84142431518774 L 934 313.4815722427094 L 935 314.12489411563115 L 936 314.7713668667956 L 937 315.4209673160665 L 938 316.07367217115984 L 939 316.7294580284791 L 940 317.3883013739544 L 941 318.0501785838852 L 942 318.71506592578817 L 943 319.3829395592476 L 944 320.0537755367701 L 945 320.7275498046439 L 946 321.4042382038007 L 947 322.0838164706821 L 948 322.7662602381099 L 949 323.45154503615936 L 950 324.139646293037 L 951 324.8305393359614 L 952 325.524199392048 L 953 326.22060158919714 L 954 326.91972095698645 L 955 327.6215324275653 L 956 328.32601083655453 L 957 329.0331309239483 L 958 329.7428673350198 L 959 330.45519462123053 L 960 331.1700872411427 L 961 331.88751956133524 L 962 332.6074658573225 L 963 333.3299003144771 L 964 334.05479702895525 L 965 334.7821300086257 L 966 335.5118731740017 L 967 336.24400035917614 L 968 336.97848531275974 L 969 337.715301698822 L 970 338.4544230978361 L 971 339.19582300762613 L 972 339.9394748443167 L 973 340.68535194328695 L 974 341.4334275601261 L 975 342.1836748715927 L 976 342.9360669765763 L 977 343.690576897062 L 978 344.4471775790979 L 979 345.20584189376495 L 980 345.9665426381499 L 981 346.72925253632076 L 982 347.4939442403044 L 983 348.26059033106753 L 984 349.02916331949973 L 985 349.7996356473992 L 986 350.5719796884607 L 987 351.3461677492663 L 988 352.1221720702782 L 989 352.89996482683443 L 990 353.679518130146 L 991 354.46080402829733 L 992 355.24379450724837 L 993 356.02846149183904 L 994 356.81477684679595 L 995 357.6027123777412 L 996 358.3922398322034 L 997 359.1833309006304 L 998 359.9759572174048 L 999 360.77009036186087 L 1000 361.56570185930343 L 1001 362.3627631820292 L 1002 363.1612457503493 L 1003 363.9611209336143 L 1004 364.76236005124065 L 1005 365.5649343737393 L 1006 366.36881512374543 L 1007 367.17397347705065 L 1008 367.98038056363646 L 1009 368.78800746870945 L 1010 369.59682523373755 L 1011 370.4068048574893 L 1012 371.2179172970732 L 1013 372.030133468979 L 1014 372.8434242501206 L 1015 373.6577604788807 L 1016 374.47311295615566 L 1017 375.2894524464033 L 1018 376.10674967869045 L 1019 376.92497534774304 L 1020 377.7441001149966 L 1021 378.5640946096484 L 1022 379.38492942971027 L 1023 380.2065751430634 L 1024 381.02900228851286 L 1025 381.8521813768448 L 1026 382.6760828918833 L 1027 383.500677291549 L 1028 384.3259350089182 L 1029 385.151826453283 L 1030 385.9783220112124 L 1031 386.80539204761413 L 1032 387.63300690679733 L 1033 388.4611369135356 L 1034 389.28975237413135 L 1035 390.11882357748044 L 1036 390.9483207961374 L 1037 391.77821428738156 L 1038 392.608474294283 L 1039 393.43907104677027 L 1040 394.26997476269736 L 1041 395.1011556489117 L 1042 395.9325839023222 L 1043 396.7642297109685 L 1044 397.5960632550891 L 1045 398.42805470819127 L 1046 399.2601742381201 L 1047 400.09239200812834 L 1048 400.92467817794625 L 1049 401.7570029048515 L 1050 402.58933634473925 L 1051 403.4216486531924 L 1052 404.2539099865511 L 1053 405.0860905029837 L 1054 405.91816036355624 L 1055 406.75008973330245 L 1056 407.5818487822935 L 1057 408.41340768670767 L 1058 409.24473662989976 L 1059 410.0758058034701 L 1060 410.9065854083333 L 1061 411.7370456557869 L 1062 412.56715676857954 L 1063 413.39688898197835 L 1064 414.2262125448365 L 1065 415.05509772066006 L 1066 415.88351478867355 L 1067 416.7114340448865 L 1068 417.53882580315815 L 1069 418.36566039626166 L 1070 419.1919081769483 L 1071 420.0175395190101 L 1072 420.84252481834244 L 1073 421.6668344940054 L 1074 422.49043898928437 L 1075 423.3133087727499 L 1076 424.1354143393168 L 1077 424.95672621130166 L 1078 425.7772149394802 L 1079 426.59685110414296 L 1080 427.4156053161502 L 1081 428.23344821798594 L 1082 429.0503504848103 L 1083 429.8662828255112 L 1084 430.68121598375444 L 1085 431.49512073903304 L 1086 432.30796790771444 L 1087 433.1197283440876 L 1088 433.9303729414074 L 1089 434.7398726329389 L 1090 435.548198392999 L 1091 436.35532123799754 L 1092 437.16121222747665 L 1093 437.96584246514817 L 1094 438.7691830999296 L 1095 439.5712053269792 L 1096 440.37188038872847 L 1097 441.17117957591313 L 1098 441.9690742286027 L 1099 442.7655357372284 L 1100 443.5605355436084 L 1101 444.3540451419724 L 1102 445.14603607998333 L 1103 445.9364799597577 L 1104 446.725348438884 L 1105 447.51261323143854 L 1106 448.29824610900016 L 1107 449.08221890166215 L 1108 449.8645034990421 L 1109 450.6450718512903 L 1110 451.4238959700953 L 1111 452.20094792968735 L 1112 452.97619986783985 L 1113 453.74962398686836 L 1114 454.52119255462725 L 1115 455.29087790550426 L 1116 456.0586524414122 L 1117 456.8244886327789 L 1118 457.5883590195339 L 1119 458.35023621209336 L 1120 459.11009289234204 L 1121 459.8679018146129 L 1122 460.62363580666374 L 1123 461.377267770652 L 1124 462.128770684106 L 1125 462.87811760089403 L 1126 463.62528165219044 L 1127 464.3702360474392 L 1128 465.11295407531435 L 1129 465.8534091046778 L 1130 466.5915745855344 L 1131 467.3274240499836 L 1132 468.060931113169 L 1133 468.79206947422364 L 1134 469.52081291721396 L 1135 470.24713531207925 L 1136 470.97101061556833 L 1137 471.69241287217415 L 1138 472.4113162150638 L 1139 473.12769486700637 L 1140 473.841523141297 L 1141 474.552775442678 L 1142 475.2614262682566 L 1143 475.96745020841945 L 1144 476.67082194774355 L 1145 477.3715162659041 L 1146 478.06950803857893 L 1147 478.764772238349 L 1148 479.45728393559614 L 1149 480.1470182993968 L 1150 480.8339505984122 L 1151 481.5180562017755 L 1152 482.19931057997485 L 1153 482.8776893057326 L 1154 483.55316805488167 L 1155 484.22572260723734 L 1156 484.89532884746586 L 1157 485.56196276594915 L 1158 486.22560045964553 L 1159 486.88621813294714 L 1160 487.5437920985328 L 1161 488.1982987782175 L 1162 488.849714703798 L 1163 489.4980165178939 L 1164 490.1431809747854 L 1165 490.785184941247 L 1166 491.4240053973766 L 1167 492.05961943742125 L 1168 492.692004270598 L 1169 493.32113722191167 L 1170 493.9469957329675 L 1171 494.5695573627801 L 1172 495.18879978857814 L 1173 495.8047008066047 L 1174 496.41723833291366 L 1175 497.026390404161 L 1176 497.63213517839307 L 1177 498.234450935829 L 1178 498.83331607964 L 1179 499.4287091367236 L 1180 500.02060875847377 L 1181 500.60899372154597 L 1182 501.1938429286185 L 1183 501.77513540914885 L 1184 502.3528503201257 L 1185 502.92696694681615 L 1186 503.4974647035087 L 1187 504.0643231342509 L 1188 504.62752191358356 L 1189 505.1870408472689 L 1190 505.74285987301494 L 1191 506.29495906119456 L 1192 506.84331861556075 L 1193 507.3879188739557 L 1194 507.92874030901635 L 1195 508.46576352887416 L 1196 508.99896927785085 L 1197 509.5283384371483 L 1198 510.05385202553475 L 1199 510.57549120002477 L 1200 511.09323725655526 L 1201 511.60707163065604 L 1202 512.1169758981155 L 1203 512.6229317756411 L 1204 513.1249211215151 L 1205 513.622925936245 L 1206 514.116928363209 L 1207 514.6069106892962 L 1208 515.0928553455417 L 1209 515.5747449077566 L 1210 516.0525620971525 L 1211 516.526289780962 L 1212 516.9959109730517 L 1213 517.4614088345321 L 1214 517.9227666743612 L 1215 518.3799679499431 L 1216 518.8329962677208 L 1217 519.281835383764 L 1218 519.7264692043525 L 1219 520.1668817865518 L 1220 520.6030573387859 L 1221 521.034980221403 L 1222 521.4626349472363 L 1223 521.8860061821597 L 1224 522.305078745637 L 1225 522.7198376112667 L 1226 523.1302679073208 L 1227 523.5363549172777 L 1228 523.9380840803499 L 1229 524.3354409920067 L 1230 524.7284114044901 L 1231 525.1169812273256 L 1232 525.5011365278281 L 1233 525.8808635316004 L 1234 526.2561486230284 L 1235 526.6269783457684 L 1236 526.9933394032297 L 1237 527.3552186590516 L 1238 527.7126031375745 L 1239 528.0654800243049 L 1240 528.4138366663747 L 1241 528.7576605729954 L 1242 529.0969394159058 L 1243 529.431661029814 L 1244 529.7618134128332 L 1245 530.0873847269129 L 1246 530.4083632982625 L 1247 530.7247376177705 L 1248 531.036496341417 L 1249 531.3436282906802 L 1250 531.6461224529373 L 1251 531.94396798186 L 1252 532.2371541978026 L 1253 532.525670588185 L 1254 532.8095068078703 L 1255 533.088652679535 L 1256 533.3630981940345 L 1257 533.6328335107614 L 1258 533.897848957999 L 1259 534.1581350332677 L 1260 534.4136824036657 L 1261 534.6644819062035 L 1262 534.9105245481334 L 1263 535.1518015072704 L 1264 535.3883041323098 L 1265 535.6200239431372 L 1266 535.8469526311318 L 1267 536.0690820594651 L 1268 536.2864042633926 L 1269 536.4989114505388 L 1270 536.7065960011773 L 1271 536.9094504685036 L 1272 537.1074675789023 L 1273 537.3006402322078 L 1274 537.4889615019588 L 1275 537.672424635647 L 1276 537.8510230549588 L 1277 538.0247503560115 L 1278 538.1936003095828 L 1279 538.3575668613341 L 1280 538.5166441320276 L 1281 538.6708264177372 L 1282 538.820108190053 L 1283 538.9644840962794 L 1284 539.1039489596271 L 1285 539.2384977793989 L 1286 539.3681257311688 L 1287 539.492828166955 L 1288 539.6126006153864 L 1289 539.7274387818636 L 1290 539.837338548712 L 1291 539.9422959753299 L 1292 540.0423072983299 L 1293 540.1373689316736 L 1294 540.2274774668005 L 1295 540.3126296727495 L 1296 540.3928224962757 L 1297 540.4680530619593 L 1298 540.5383186723086 L 1299 540.6036168078574 L 1300 540.6639451272544 L 1301 540.7193014673478 L 1302 540.769683843263 L 1303 540.815090448473 L 1304 540.8555196548641 L 1305 540.8909700127933 L 1306 540.9214402511412 L 1307 540.9469292773572 L 1308 540.9674361774985 L 1309 540.9829602162628 L 1310 540.9935008370153 L 1311 540.9990576618083 L 1312 540.9996304913941 L 1313 540.9952193052334 L 1314 540.985824261495 L 1315 540.9714456970509 L 1316 540.9520841274632 L 1317 540.9277402469667 L 1318 540.8984149284436 L 1319 540.8641092233918 L 1320 540.824824361888 L 1321 540.7805617525428 L 1322 540.7313229824506 L 1323 540.6771098171326 L 1324 540.6179242004739 L 1325 540.5537682546529 L 1326 540.484644280066 L 1327 540.410554755245 L 1328 540.3315023367676 L 1329 540.247489859163 L 1330 540.1585203348099 L 1331 540.0645969538282 L 1332 539.9657230839651 L 1333 539.8619022704743 L 1334 539.7531382359882 L 1335 539.6394348803854 L 1336 539.5207962806501 L 1337 539.3972266907264 L 1338 539.2687305413656 L 1339 539.135312439967 L 1340 538.9969771704136 L 1341 538.8537296928993 L 1342 538.7055751437521 L 1343 538.5525188352494 L 1344 538.394566255428 L 1345 538.2317230678865 L 1346 538.0639951115829 L 1347 537.8913884006254 L 1348 537.7139091240558 L 1349 537.5315636456286 L 1350 537.3443585035823 L 1351 537.1523004104051 L 1352 536.9553962525941 L 1353 536.7536530904086 L 1354 536.5470781576167 L 1355 536.3356788612361 L 1356 536.1194627812683 L 1357 535.8984376704271 L 1358 535.6726114538604 L 1359 535.4419922288663 L 1360 535.2065882646021 L 1361 534.9664080017887 L 1362 534.7214600524075 L 1363 534.4717531993911 L 1364 534.2172963963095 L 1365 533.9580987670482 L 1366 533.6941696054813 L 1367 533.4255183751382 L 1368 533.1521547088644 L 1369 532.8740884084759 L 1370 532.5913294444081 L 1371 532.303887955358 L 1372 532.0117742479206 L 1373 531.7149987962196 L 1374 531.4135722415316 L 1375 531.1075053919046 L 1376 530.796809221771 L 1377 530.481494871553 L 1378 530.1615736472639 L 1379 529.837057020103 L 1380 529.5079566260432 L 1381 529.174284265415 L 1382 528.8360519024826 L 1383 528.493271665015 L 1384 528.1459558438512 L 1385 527.79411689246 L 1386 527.4377674264925 L 1387 527.0769202233307 L 1388 526.7115882216286 L 1389 526.3417845208488 L 1390 525.9675223807924 L 1391 525.5888152211239 L 1392 525.2056766208898 L 1393 524.8181203180318 L 1394 524.4261602088942 L 1395 524.0298103477254 L 1396 523.6290849461744 L 1397 523.223998372781 L 1398 522.8145651524605 L 1399 522.4007999659829 L 1400 521.9827176494466 L 1401 521.5603331937466 L 1402 521.1336617440367 L 1403 520.7027185991864 L 1404 520.2675192112326 L 1405 519.8280791848257 L 1406 519.3844142766691 L 1407 518.9365403949557 L 1408 518.4844735987964 L 1409 518.0282300976444 L 1410 517.5678262507145 L 1411 517.1032785663958 L 1412 516.6346037016609 L 1413 516.1618184614671 L 1414 515.6849397981553 L 1415 515.2039848108409 L 1416 514.7189707448018 L 1417 514.2299149908594 L 1418 513.736835084755 L 1419 513.2397487065214 L 1420 512.7386736798487 L 1421 512.2336279714452 L 1422 511.7246296903935 L 1423 511.21169708750045 L 1424 510.69484855464367 L 1425 510.1741026241114 L 1426 509.6494779679384 L 1427 509.120993397236 L 1428 508.5886678615182 L 1429 508.0525204480217 L 1430 507.51257038102165 L 1431 506.9688370211424 L 1432 506.4213398646635 L 1433 505.87009854282 L 1434 505.31513282109916 L 1435 504.75646259853187 L 1436 504.1941079069783 L 1437 503.6280889104102 L 1438 503.0584259041881 L 1439 502.485139314333 L 1440 501.90824969679466 L 1441 501.32777773671376 L 1442 500.7437442476808 L 1443 500.15617017098975 L 1444 499.56507657488686 L 1445 498.97048465381545 L 1446 498.3724157276559 L 1447 497.7708912409612 L 1448 497.16593276218816 L 1449 496.55756198292374 L 1450 495.94580071710755 L 1451 495.3306709002496 L 1452 494.7121945886437 L 1453 494.0903939585767 L 1454 493.4652913055333 L 1455 492.83690904339653 L 1456 492.20526970364426 L 1457 491.57039593454107 L 1458 490.93231050032637 L 1459 490.291036280398 L 1460 489.646596268492 L 1461 488.9990135718581 L 1462 488.3483114104308 L 1463 487.6945131159979 L 1464 487.03764213136253 L 1465 486.37772200950326 L 1466 485.7147764127297 L 1467 485.0488291118337 L 1468 484.3799039852372 L 1469 483.70802501813625 L 1470 483.03321630164044 L 1471 482.35550203190957 L 1472 481.67490650928596 L 1473 480.99145413742286 L 1474 480.3051694224099 L 1475 479.6160769718939 L 1476 478.92420149419684 L 1477 478.2295677974298 L 1478 477.53220078860346 L 1479 476.83212547273513 L 1480 476.12936695195185 L 1481 475.42395042459066 L 1482 474.715901184295 L 1483 474.0052446191075 L 1484 473.2920062105601 L 1485 472.57621153275994 L 1486 471.8578862514729 L 1487 471.1370561232026 L 1488 470.41374699426757 L 1489 469.6879847998741 L 1490 468.95979556318605 L 1491 468.2292053943929 L 1492 467.49624048977205 L 1493 466.76092713075036 L 1494 466.02329168296166 L 1495 465.28336059530136 L 1496 464.54116039897804 L 1497 463.7967177065622 L 1498 463.050059211032 L 1499 462.3012116848162 L 1500 461.55020197883414 L 1501 460.7970570215328 L 1502 460.04180381792173 L 1503 459.28446944860417 L 1504 458.52508106880646 L 1505 457.7636659074042 L 1506 457.00025126594585 L 1507 456.23486451767394 L 1508 455.4675331065435 L 1509 454.6982845462379 L 1510 453.9271464191827 L 1511 453.15414637555614 L 1512 452.3793121322979 L 1513 451.6026714721156 L 1514 450.824252242488 L 1515 450.0440823546671 L 1516 449.26218978267696 L 1517 448.4786025623104 L 1518 447.693348790125 L 1519 446.90645662243395 L 1520 446.1179542742976 L 1521 445.32787001851125 L 1522 444.5362321845919 L 1523 443.74306915776185 L 1524 442.9484093779314 L 1525 442.15228133867885 L 1526 441.3547135862289 L 1527 440.5557347184291 L 1528 439.7553733837243 L 1529 438.9536582801297 L 1530 438.1506181542014 L 1531 437.3462818000063 L 1532 436.540678058089 L 1533 435.73383581443807 L 1534 434.9257839994501 L 1535 434.1165515868927 L 1536 433.3061675928651 L 1537 432.49466107475814 L 1538 431.6820611302123 L 1539 430.8683968960741" stroke-linecap="round" stroke-linejoin="round" stroke-miterlimit="10" stroke-width="17"/></g></svg>